<?xml version="1.0" encoding="UTF-8" standalone="no"?>
<!-- Created with Inkscape (http://www.inkscape.org/) -->

<svg
   xmlns:dc="http://purl.org/dc/elements/1.1/"
   xmlns:cc="http://creativecommons.org/ns#"
   xmlns:rdf="http://www.w3.org/1999/02/22-rdf-syntax-ns#"
   xmlns="http://www.w3.org/2000/svg"
   width="64px"
   height="64px"
   id="icon"
   version="1.1">
  <title>Icon</title>
  <defs>
    <filter
       x="-0.25"
       width="1.5"
       y="-0.25"
       height="1.5"
       color-interpolation-filters="sRGB"
       id="filter3512">
      <feGaussianBlur
         result="result8"
         stdDeviation="7"
         id="feGaussianBlur3514" />
      <feComposite
         in="result8"
         operator="xor"
         result="result6"
         in2="result8"
         id="feComposite3516" />
      <feDisplacementMap
         result="result4"
         scale="75"
         yChannelSelector="A"
         xChannelSelector="A"
         in2="result6"
         in="result6"
         id="feDisplacementMap3518" />
      <feComposite
         k1="2"
         in="SourceGraphic"
         operator="arithmetic"
         result="result2"
         in2="result4"
         id="feComposite3520" />
      <feComposite
         in2="result2"
         operator="in"
         in="result6"
         result="fbSourceGraphic"
         id="feComposite3522" />
    </filter>
    <filter
       x="-0.25"
       width="1.5"
       y="-0.25"
       height="1.5"
       color-interpolation-filters="sRGB"
       id="filter4498">
      <feGaussianBlur
         result="result8"
         stdDeviation="7"
         id="feGaussianBlur4500" />
      <feComposite
         in="result8"
         operator="xor"
         result="result6"
         in2="result8"
         id="feComposite4502" />
      <feDisplacementMap
         result="result4"
         scale="75"
         yChannelSelector="A"
         xChannelSelector="A"
         in2="result6"
         in="result6"
         id="feDisplacementMap4504" />
      <feComposite
         k1="2"
         in="SourceGraphic"
         operator="arithmetic"
         result="result2"
         in2="result4"
         id="feComposite4506" />
      <feComposite
         in2="result2"
         operator="in"
         in="result6"
         result="fbSourceGraphic"
         id="feComposite4508" />
    </filter>
  </defs>
  <metadata>
    <rdf:RDF>
      <cc:Work
         rdf:about="">
        <dc:format>image/svg+xml</dc:format>
        <dc:type
           rdf:resource="http://purl.org/dc/dcmitype/StillImage" />
        <dc:title>Icon</dc:title>
        <cc:license
           rdf:resource="http://www.gnu.org/licenses/gpl-3.0" />
        <dc:creator>
          <cc:Agent>
            <dc:title>Christian Schmitz</dc:title>
          </cc:Agent>
        </dc:creator>
        <dc:description># taken from Purisa:
Copyright: 2003, 2004 Poonlap Veerathanabutr &lt;poonlap@linux.thai.net&gt;
License: GPL-2+ with Font exception</dc:description>
      </cc:Work>
    </rdf:RDF>
  </metadata>
  <g
     transform="matrix(1.2357885,0,0,1.2357885,0.14790041,-13.980825)"
     style="fill:#000000;fill-opacity:1;stroke:none;filter:url(#filter4498);">
    <path
       d="m 26.303177,24.302167 c 1.54365,3.3e-5 2.783266,-0.280635 3.718853,-0.842004 0.935532,-0.561302 1.567034,-1.239582 1.894509,-2.034844 0.374195,-0.795189 0.631474,-1.590415 0.771838,-2.385678 0.187081,-0.795188 0.420971,-1.473468 0.70167,-2.034844 0.327415,-0.561296 0.771805,-0.841963 1.333173,-0.842004 1.122639,4.1e-5 1.683975,0.70171 1.684009,2.10501 -3.4e-5,0.327485 -0.02342,0.748487 -0.07017,1.263007 -0.04681,0.467817 -0.0702,0.86543 -0.07017,1.192839 -3.4e-5,0.795262 0.116911,1.263042 0.350835,1.403341 0.280634,0.140368 0.865358,0.210535 1.754175,0.210501 1.26297,3.4e-5 1.894472,0.491203 1.89451,1.473507 -3.8e-5,0.748481 -0.374261,1.543706 -1.122672,2.385679 -0.748484,0.795256 -1.450154,1.192869 -2.105011,1.192839 -0.140368,3e-5 -0.280702,-0.02336 -0.421002,-0.07017 -0.140368,-0.04675 -0.257313,-0.07014 -0.350835,-0.07017 -0.421036,3e-5 -0.748481,0.421032 -0.982339,1.263007 -0.187144,0.842032 -0.584757,3.204319 -1.192839,7.086869 l -0.561336,3.087349 4.560856,-0.421002 c 1.49686,-0.140315 2.549364,-0.210482 3.157516,-0.210501 0.841965,1.9e-5 1.262967,0.233909 1.263007,0.70167 -4e-5,1.169468 -0.327486,1.988082 -0.982339,2.455846 -0.608152,0.421017 -1.80099,0.842019 -3.578518,1.263006 -2.900269,0.79524 -4.654443,1.450132 -5.262526,1.964677 -0.561366,0.467792 -0.865423,1.590463 -0.912172,3.368017 -0.04681,2.572797 -0.280697,4.35036 -0.70167,5.332694 -0.42103,0.982341 -1.192867,1.543677 -2.315512,1.684008 l -2.034843,0.210501 0.491169,-4.841524 0.561336,-4.771358 -2.455846,0 c -1.777585,1.2e-5 -2.947035,0.327458 -3.508351,0.982339 -0.514577,0.608124 -1.005746,2.221964 -1.473507,4.841524 -0.701688,4.256801 -1.613858,6.385199 -2.736514,6.385199 -0.187127,0 -0.421017,-0.04678 -0.701671,-0.140334 -0.233904,-0.09356 -0.491183,-0.397613 -0.771837,-0.912171 -0.280681,-0.561335 -0.421015,-1.263005 -0.421002,-2.105011 -1.3e-5,-0.701667 0.07015,-1.684004 0.210501,-2.947015 l 0.491169,-4.70119 -3.99952,0 c -1.263015,1e-5 -2.245352,-0.04677 -2.947015,-0.140334 C 8.7614156,46.545124 8.3170249,46.40479 8.1299186,46.264446 7.9428012,46.077344 7.8492452,45.843455 7.8492505,45.562775 c -5.3e-6,-0.65488 0.5379414,-1.262993 1.6138415,-1.824342 1.075886,-0.608101 2.38567,-0.982324 3.929353,-1.122673 1.964664,-0.187097 3.227669,-0.58471 3.78902,-1.192839 0.561321,-0.654876 1.052489,-2.151771 1.473507,-4.490689 0.233874,-1.871099 0.537931,-3.438161 0.912171,-4.701191 l 0.421002,-1.754176 -5.122192,0.561337 c -2.245355,0.187137 -3.414804,0.280693 -3.508351,0.280668 -0.701679,2.5e-5 -1.146069,-0.09353 -1.333174,-0.280668 -0.1871191,-0.233864 -0.280675,-0.654866 -0.2806679,-1.263007 -7.1e-6,-0.701642 0.2104937,-1.2162 0.6315029,-1.543674 0.420994,-0.327417 1.286387,-0.678252 2.59618,-1.052506 2.104998,-0.561305 3.742227,-0.841973 4.911692,-0.842004 1.122656,3.1e-5 1.871103,-0.327415 2.245344,-0.982338 0.374207,-0.65486 0.701652,-2.151755 0.982339,-4.49069 0.187093,-1.637192 0.420983,-2.713086 0.70167,-3.227683 0.327427,-0.514518 0.93554,-0.771797 1.824343,-0.771837 0.467758,4e-5 0.771815,0.23393 0.912171,0.70167 0.140312,0.421041 0.257257,1.426768 0.350835,3.017182 0.04676,0.888818 0.07015,1.54371 0.07017,1.964677 0.04676,0.374258 0.116923,0.725093 0.210501,1.052505 0.140311,0.327479 0.280645,0.53798 0.421002,0.631503 0.140311,0.04681 0.374201,0.0702 0.70167,0.07017 m 1.403341,16.208583 c 0.56131,-0.140318 1.052479,-1.099266 1.473507,-2.876848 0.467753,-1.777544 0.795199,-3.391384 0.982339,-4.841525 0.187084,-1.496871 0.28064,-2.385652 0.280668,-2.666347 -2.8e-5,-1.122644 -0.42103,-1.68398 -1.263007,-1.684008 -0.421028,2.8e-5 -1.099308,0.116973 -2.034843,0.350835 -1.590476,0.327474 -2.572813,0.86542 -2.947015,1.613841 -0.327468,0.748474 -0.771858,3.251096 -1.333174,7.507872 l -0.491169,3.859186 2.105011,-0.421002 c 1.871097,-0.467764 2.94699,-0.748432 3.227683,-0.842004" />
  </g>
</svg>
